<svg width="217" height="40" viewBox="0 0 217 40" fill="none" xmlns="http://www.w3.org/2000/svg">
<path d="M23.096 5.304V28.248C23.096 31.8 22.088 34.536 20.072 36.456C18.088 38.376 15.4 39.336 12.008 39.336C8.456 39.336 5.608 38.328 3.464 36.312C1.32 34.296 0.248 31.432 0.248 27.72H8.408C8.408 29.128 8.696 30.2 9.272 30.936C9.848 31.64 10.68 31.992 11.768 31.992C12.76 31.992 13.528 31.672 14.072 31.032C14.616 30.392 14.888 29.464 14.888 28.248V5.304H23.096ZM55.094 25.176C55.094 25.944 55.046 26.744 54.95 27.576H36.374C36.502 29.24 37.03 30.52 37.958 31.416C38.918 32.28 40.086 32.712 41.462 32.712C43.51 32.712 44.934 31.848 45.734 30.12H54.47C54.022 31.88 53.206 33.464 52.022 34.872C50.87 36.28 49.414 37.384 47.654 38.184C45.894 38.984 43.926 39.384 41.75 39.384C39.126 39.384 36.79 38.824 34.742 37.704C32.694 36.584 31.094 34.984 29.942 32.904C28.79 30.824 28.214 28.392 28.214 25.608C28.214 22.824 28.774 20.392 29.894 18.312C31.046 16.232 32.646 14.632 34.694 13.512C36.742 12.392 39.094 11.832 41.75 11.832C44.342 11.832 46.646 12.376 48.662 13.464C50.678 14.552 52.246 16.104 53.366 18.12C54.518 20.136 55.094 22.488 55.094 25.176ZM46.694 23.016C46.694 21.608 46.214 20.488 45.254 19.656C44.294 18.824 43.094 18.408 41.654 18.408C40.278 18.408 39.11 18.808 38.15 19.608C37.222 20.408 36.646 21.544 36.422 23.016H46.694ZM164.954 9.432C163.514 9.432 162.33 9.016 161.402 8.184C160.506 7.32 160.058 6.264 160.058 5.016C160.058 3.736 160.506 2.68 161.402 1.848C162.33 0.983997 163.514 0.551997 164.954 0.551997C166.362 0.551997 167.514 0.983997 168.41 1.848C169.338 2.68 169.802 3.736 169.802 5.016C169.802 6.264 169.338 7.32 168.41 8.184C167.514 9.016 166.362 9.432 164.954 9.432ZM169.034 12.216V39H160.826V12.216H169.034ZM173.47 25.56C173.47 22.808 173.982 20.392 175.006 18.312C176.062 16.232 177.486 14.632 179.278 13.512C181.07 12.392 183.07 11.832 185.278 11.832C187.166 11.832 188.814 12.216 190.222 12.984C191.662 13.752 192.766 14.76 193.534 16.008V12.216H201.742V39H193.534V35.208C192.734 36.456 191.614 37.464 190.174 38.232C188.766 39 187.118 39.384 185.23 39.384C183.054 39.384 181.07 38.824 179.278 37.704C177.486 36.552 176.062 34.936 175.006 32.856C173.982 30.744 173.47 28.312 173.47 25.56ZM193.534 25.608C193.534 23.56 192.958 21.944 191.806 20.76C190.686 19.576 189.31 18.984 187.678 18.984C186.046 18.984 184.654 19.576 183.502 20.76C182.382 21.912 181.822 23.512 181.822 25.56C181.822 27.608 182.382 29.24 183.502 30.456C184.654 31.64 186.046 32.232 187.678 32.232C189.31 32.232 190.686 31.64 191.806 30.456C192.958 29.272 193.534 27.656 193.534 25.608ZM211.64 39.384C210.2 39.384 209.016 38.968 208.088 38.136C207.192 37.272 206.744 36.216 206.744 34.968C206.744 33.688 207.192 32.616 208.088 31.752C209.016 30.888 210.2 30.456 211.64 30.456C213.048 30.456 214.2 30.888 215.096 31.752C216.024 32.616 216.488 33.688 216.488 34.968C216.488 36.216 216.024 37.272 215.096 38.136C214.2 38.968 213.048 39.384 211.64 39.384Z" fill="#667080"/>
<path d="M67.7521 16.68C68.7121 15.208 69.9121 14.056 71.3521 13.224C72.7921 12.36 74.3921 11.928 76.1521 11.928V20.616H73.8961C71.8481 20.616 70.3121 21.064 69.2881 21.96C68.2641 22.824 67.7521 24.36 67.7521 26.568V39H59.5441V12.216H67.7521V16.68ZM105.443 25.176C105.443 25.944 105.395 26.744 105.299 27.576H86.7234C86.8514 29.24 87.3794 30.52 88.3074 31.416C89.2674 32.28 90.4354 32.712 91.8114 32.712C93.8594 32.712 95.2834 31.848 96.0834 30.12H104.819C104.371 31.88 103.555 33.464 102.371 34.872C101.219 36.28 99.7634 37.384 98.0034 38.184C96.2434 38.984 94.2754 39.384 92.0994 39.384C89.4754 39.384 87.1394 38.824 85.0914 37.704C83.0434 36.584 81.4434 34.984 80.2914 32.904C79.1394 30.824 78.5634 28.392 78.5634 25.608C78.5634 22.824 79.1234 20.392 80.2434 18.312C81.3954 16.232 82.9954 14.632 85.0434 13.512C87.0914 12.392 89.4434 11.832 92.0994 11.832C94.6914 11.832 96.9954 12.376 99.0114 13.464C101.027 14.552 102.595 16.104 103.715 18.12C104.867 20.136 105.443 22.488 105.443 25.176ZM97.0434 23.016C97.0434 21.608 96.5634 20.488 95.6034 19.656C94.6434 18.824 93.4434 18.408 92.0034 18.408C90.6274 18.408 89.4594 18.808 88.4994 19.608C87.5714 20.408 86.9954 21.544 86.7714 23.016H97.0434ZM144.07 11.928C147.398 11.928 150.038 12.936 151.99 14.952C153.974 16.968 154.966 19.768 154.966 23.352V39H146.806V24.456C146.806 22.728 146.342 21.4 145.414 20.472C144.518 19.512 143.27 19.032 141.67 19.032C140.07 19.032 138.806 19.512 137.878 20.472C136.982 21.4 136.534 22.728 136.534 24.456V39H128.374V24.456C128.374 22.728 127.91 21.4 126.982 20.472C126.086 19.512 124.838 19.032 123.238 19.032C121.638 19.032 120.374 19.512 119.446 20.472C118.55 21.4 118.102 22.728 118.102 24.456V39H109.894V12.216H118.102V15.576C118.934 14.456 120.022 13.576 121.366 12.936C122.71 12.264 124.23 11.928 125.926 11.928C127.942 11.928 129.734 12.36 131.302 13.224C132.902 14.088 134.15 15.32 135.046 16.92C135.974 15.448 137.238 14.248 138.838 13.32C140.438 12.392 142.182 11.928 144.07 11.928Z" fill="#EA5C2B"/>
</svg>
